<svg width="56" height="56" viewBox="0 0 56 56" fill="none" xmlns="http://www.w3.org/2000/svg">
<path d="M28 56C43.464 56 56 43.464 56 28C56 12.536 43.464 0 28 0C12.536 0 0 12.536 0 28C0 43.464 12.536 56 28 56Z" fill="#00B4FF"/>
<path d="M28 32.3754C29.933 32.3754 31.5 30.8084 31.5 28.8754C31.5 26.9424 29.933 25.3754 28 25.3754C26.067 25.3754 24.5 26.9424 24.5 28.8754C24.5 30.8084 26.067 32.3754 28 32.3754Z" fill="white"/>
<path d="M38.9375 21.8765H34.3984C34.2344 21.8765 34.0309 21.7704 33.8723 21.6031L32.3805 19.2625C31.7734 18.3765 31.5 18.3765 30.5156 18.3765H25.4844C24.5 18.3765 24.1719 18.3765 23.6212 19.263L22.1277 21.6031C22.0062 21.7354 21.8356 21.8765 21.6562 21.8765V21.0015C21.6562 20.8855 21.6102 20.7742 21.5281 20.6922C21.4461 20.6101 21.3348 20.564 21.2187 20.564H19.0312C18.9152 20.564 18.8039 20.6101 18.7219 20.6922C18.6398 20.7742 18.5937 20.8855 18.5937 21.0015V21.8765H17.0625C16.7144 21.8765 16.3806 22.0148 16.1344 22.2609C15.8883 22.5071 15.75 22.8409 15.75 23.189V36.314C15.75 36.6621 15.8883 36.996 16.1344 37.2421C16.3806 37.4882 16.7144 37.6265 17.0625 37.6265H38.9375C39.2856 37.6265 39.6194 37.4882 39.8656 37.2421C40.1117 36.996 40.25 36.6621 40.25 36.314V23.189C40.25 22.8409 40.1117 22.5071 39.8656 22.2609C39.6194 22.0148 39.2856 21.8765 38.9375 21.8765ZM28.2466 34.1211C27.1885 34.1708 26.14 33.8992 25.239 33.342C24.338 32.7848 23.6267 31.9681 23.1984 30.9992C22.7702 30.0303 22.6451 28.9544 22.8395 27.9131C23.034 26.8718 23.5389 25.9136 24.288 25.1645C25.0371 24.4155 25.9952 23.9105 27.0366 23.7161C28.0779 23.5216 29.1537 23.6467 30.1227 24.075C31.0916 24.5032 31.9083 25.2146 32.4655 26.1155C33.0226 27.0165 33.2942 28.065 33.2445 29.1232C33.1819 30.4285 32.6352 31.6636 31.7111 32.5877C30.7871 33.5117 29.5519 34.0584 28.2466 34.1211Z" fill="white"/>
</svg>
