<svg width="56" height="56" viewBox="0 0 56 56" fill="none" xmlns="http://www.w3.org/2000/svg">
<path d="M28 56C43.464 56 56 43.464 56 28C56 12.536 43.464 0 28 0C12.536 0 0 12.536 0 28C0 43.464 12.536 56 28 56Z" fill="#00B4FF"/>
<path d="M38.5 27.9996C38.5 22.2027 33.7969 17.4996 28 17.4996C22.2031 17.4996 17.5 22.2027 17.5 27.9996C17.5 33.7964 22.2031 38.4996 28 38.4996C33.7969 38.4996 38.5 33.7964 38.5 27.9996Z" fill="white" stroke="white" stroke-width="1.5" stroke-miterlimit="10"/>
<path d="M33.1773 22.2543L26.7679 24.818C26.3277 24.9941 25.9279 25.2577 25.5926 25.5929C25.2574 25.9282 24.9938 26.328 24.8177 26.7682L22.254 33.1776C22.2222 33.2571 22.2144 33.3442 22.2316 33.4281C22.2488 33.512 22.2902 33.589 22.3508 33.6495C22.4114 33.7101 22.4883 33.7515 22.5722 33.7687C22.6561 33.7859 22.7432 33.7781 22.8227 33.7463L29.2321 31.1826C29.6723 31.0065 30.0721 30.7429 30.4074 30.4077C30.7426 30.0724 31.0062 29.6726 31.1823 29.2324L33.746 22.823C33.7778 22.7435 33.7856 22.6564 33.7684 22.5725C33.7512 22.4887 33.7098 22.4117 33.6492 22.3511C33.5886 22.2905 33.5117 22.2491 33.4278 22.2319C33.3439 22.2147 33.2568 22.2225 33.1773 22.2543ZM28 29.3128C27.7404 29.3128 27.4867 29.2358 27.2708 29.0916C27.055 28.9474 26.8867 28.7424 26.7874 28.5026C26.6881 28.2627 26.6621 27.9988 26.7127 27.7442C26.7634 27.4896 26.8884 27.2558 27.0719 27.0722C27.2555 26.8887 27.4893 26.7637 27.7439 26.713C27.9985 26.6624 28.2624 26.6884 28.5023 26.7877C28.7421 26.8871 28.9471 27.0553 29.0913 27.2711C29.2355 27.487 29.3125 27.7407 29.3125 28.0003C29.3125 28.3484 29.1742 28.6822 28.9281 28.9284C28.6819 29.1745 28.3481 29.3128 28 29.3128Z" fill="#00B4FF"/>
</svg>
