<svg width="56" height="56" viewBox="0 0 56 56" fill="none" xmlns="http://www.w3.org/2000/svg">
<path d="M28 56C43.464 56 56 43.464 56 28C56 12.536 43.464 0 28 0C12.536 0 0 12.536 0 28C0 43.464 12.536 56 28 56Z" fill="#00B4FF"/>
<path d="M25.375 33.2491H21.875C20.4826 33.2491 19.1473 32.696 18.1627 31.7115C17.1781 30.7269 16.625 29.3915 16.625 27.9991C16.625 26.6068 17.1781 25.2714 18.1627 24.2868C19.1473 23.3023 20.4826 22.7491 21.875 22.7491H25.375" stroke="white" stroke-width="3" stroke-linecap="round" stroke-linejoin="round"/>
<path d="M30.625 22.7491H34.125C35.5174 22.7491 36.8527 23.3023 37.8373 24.2868C38.8219 25.2714 39.375 26.6068 39.375 27.9991C39.375 29.3915 38.8219 30.7269 37.8373 31.7115C36.8527 32.696 35.5174 33.2491 34.125 33.2491H30.625" stroke="white" stroke-width="3" stroke-linecap="round" stroke-linejoin="round"/>
<path d="M22.9297 27.9984H33.1792" stroke="white" stroke-width="3" stroke-linecap="round" stroke-linejoin="round"/>
</svg>
