<svg width="56" height="56" viewBox="0 0 56 56" fill="none" xmlns="http://www.w3.org/2000/svg">
<path d="M28 56C43.464 56 56 43.464 56 28C56 12.536 43.464 0 28 0C12.536 0 0 12.536 0 28C0 43.464 12.536 56 28 56Z" fill="#00B4FF"/>
<path d="M28 16.6251C21.7279 16.6251 16.625 21.728 16.625 28.0001C16.625 34.2722 21.7279 39.3751 28 39.3751C34.2721 39.3751 39.375 34.2722 39.375 28.0001C39.375 21.728 34.2721 16.6251 28 16.6251ZM32.089 28.5087L25.83 32.2898C25.7403 32.3436 25.6379 32.3725 25.5333 32.3736C25.4287 32.3747 25.3257 32.348 25.2349 32.2962C25.1441 32.2443 25.0686 32.1693 25.0164 32.0787C24.9641 31.9881 24.9369 31.8852 24.9375 31.7807V24.2196C24.9369 24.115 24.9641 24.0121 25.0164 23.9215C25.0686 23.831 25.1441 23.7559 25.2349 23.7041C25.3257 23.6523 25.4287 23.6255 25.5333 23.6267C25.6379 23.6278 25.7403 23.6567 25.83 23.7104L32.089 27.4915C32.1762 27.5447 32.2483 27.6194 32.2984 27.7084C32.3484 27.7975 32.3747 27.898 32.3747 28.0001C32.3747 28.1023 32.3484 28.2027 32.2984 28.2918C32.2483 28.3809 32.1762 28.4556 32.089 28.5087Z" fill="white"/>
</svg>
