<svg width="56" height="56" viewBox="0 0 56 56" fill="none" xmlns="http://www.w3.org/2000/svg">
<path d="M28 56C43.464 56 56 43.464 56 28C56 12.536 43.464 0 28 0C12.536 0 0 12.536 0 28C0 43.464 12.536 56 28 56Z" fill="#00B4FF"/>
<path d="M31.5 31.4993C32.0327 30.4395 32.375 29.2659 32.375 27.9993C32.375 26.7153 32.0469 25.5701 31.5 24.4993" stroke="white" stroke-width="1.5" stroke-miterlimit="10" stroke-linecap="square"/>
<path d="M34.125 34.1241C35.1903 32.2691 35.875 30.6209 35.875 27.9991C35.875 25.3774 35.2188 23.7477 34.125 21.8741" stroke="white" stroke-width="1.5" stroke-miterlimit="10" stroke-linecap="square"/>
<path d="M36.75 36.7478C38.3906 34.2322 39.375 31.7477 39.375 27.9978C39.375 24.2479 38.3906 21.8181 36.75 19.2478" stroke="white" stroke-width="1.5" stroke-miterlimit="10" stroke-linecap="square"/>
<path d="M20.8715 23.631H15.75V32.3701H20.8715L28 38.063V17.938L20.8715 23.631Z" fill="white"/>
</svg>
