<svg width="108" height="54" viewBox="0 0 108 54" fill="none" xmlns="http://www.w3.org/2000/svg">
<path d="M55.3904 18.6232H53.4194V22.7812H52.0964V13.3312H53.4194V17.4352H55.4174L58.3874 13.3312H59.8319L56.4569 17.9077L59.9939 22.7812H58.4549L55.3904 18.6232ZM64.5492 22.8892C63.5951 22.8892 62.7356 22.6822 61.9707 22.2682C61.2056 21.8452 60.6026 21.2647 60.1617 20.5267C59.7297 19.7886 59.5137 18.9651 59.5137 18.0562C59.5137 17.1472 59.7297 16.3237 60.1617 15.5857C60.6026 14.8476 61.2056 14.2717 61.9707 13.8577C62.7356 13.4347 63.5951 13.2232 64.5492 13.2232C65.4942 13.2232 66.3491 13.4347 67.1142 13.8577C67.8791 14.2717 68.4777 14.8476 68.9097 15.5857C69.3417 16.3147 69.5577 17.1382 69.5577 18.0562C69.5577 18.9742 69.3417 19.8021 68.9097 20.5402C68.4777 21.2692 67.8791 21.8452 67.1142 22.2682C66.3491 22.6822 65.4942 22.8892 64.5492 22.8892ZM64.5492 21.6877C65.2421 21.6877 65.8631 21.5301 66.4122 21.2152C66.9701 20.9002 67.4066 20.4682 67.7217 19.9192C68.0457 19.3612 68.2077 18.7402 68.2077 18.0562C68.2077 17.3721 68.0457 16.7557 67.7217 16.2067C67.4066 15.6487 66.9701 15.2121 66.4122 14.8972C65.8631 14.5822 65.2421 14.4247 64.5492 14.4247C63.8561 14.4247 63.2262 14.5822 62.6592 14.8972C62.1011 15.2121 61.6602 15.6487 61.3362 16.2067C61.0211 16.7557 60.8637 17.3721 60.8637 18.0562C60.8637 18.7402 61.0211 19.3612 61.3362 19.9192C61.6602 20.4682 62.1011 20.9002 62.6592 21.2152C63.2262 21.5301 63.8561 21.6877 64.5492 21.6877ZM79.4262 21.6067V24.8467H78.1707V22.7812H70.3947L70.3812 24.8467H69.1257L69.1392 21.6067H69.5982C70.1922 21.5706 70.6107 21.1027 70.8537 20.2027C71.0967 19.2937 71.2452 18.0157 71.2992 16.3687L71.3937 13.3312H78.0357V21.6067H79.4262ZM72.4872 16.4902C72.4421 17.8222 72.3341 18.9246 72.1632 19.7977C72.0012 20.6707 71.7356 21.2736 71.3667 21.6067H76.6992V14.5057H72.5547L72.4872 16.4902ZM60.2369 31.0499V40.4999H58.9139V32.2244H53.4329V40.4999H52.0964V31.0499H60.2369ZM68.2716 38.1374H63.2496L62.2101 40.4999H60.8196L65.0991 31.0499H66.4356L70.7286 40.4999H69.3111L68.2716 38.1374ZM67.7991 37.0574L65.7606 32.4269L63.7221 37.0574H67.7991ZM80.0664 40.4999L80.0529 33.6149L76.6374 39.3524H76.0164L72.6009 33.6554V40.4999H71.3049V31.0499H72.4119L76.3539 37.6919L80.2419 31.0499H81.3489L81.3624 40.4999H80.0664ZM90.1749 31.0499V40.4999H88.8519V37.7459H86.2464C86.0844 37.7459 85.9629 37.7414 85.8819 37.7324L83.9918 40.4999H82.5608L84.6534 37.5029C83.9783 37.2779 83.4607 36.9044 83.1008 36.3824C82.7407 35.8514 82.5608 35.2079 82.5608 34.4519C82.5608 33.381 82.9027 32.5484 83.5868 31.9544C84.2797 31.3514 85.2112 31.0499 86.3814 31.0499H90.1749ZM83.9243 34.4384C83.9243 35.1404 84.1268 35.6804 84.5319 36.0584C84.9462 36.4274 85.5537 36.6119 86.3544 36.6119H88.8519V32.2244H86.4354C85.6254 32.2244 85.0044 32.4134 84.5724 32.7914C84.1403 33.1694 83.9243 33.7184 83.9243 34.4384ZM98.5627 32.2244H95.3227V40.4999H93.9997V32.2244H90.7732V31.0499H98.5627V32.2244ZM99.1491 31.0499H100.486V38.3399L106.075 31.0499H107.317V40.4999H105.994V33.2234L100.391 40.4999H99.1491V31.0499Z" fill="#353D51"/>
<path d="M33.6525 9.3539H39.1857V3.82048H33.6525V0H28.1198H22.5867H20.4526H17.0539L16.3744 0.0144701V0.0385941C8.68894 0.506205 6.64311 5.17818 5.62726 8.64371C-0.67636 30.1676 0.0486613 29.3137 0.0069658 29.4839H3.54351V36.3303C3.54351 37.4078 3.85055 42.7834 9.91119 42.7834C16.1194 42.7834 16.3661 52.3197 16.3744 53.4038V53.5606H17.0539H19.8203H20.3503H22.587H28.1202V48.0274H22.587V42.5519H28.1202V48.0274H33.6529V42.5519H39.186V37.0188H33.6529V42.4944H28.1202V37.8017V37.0191H33.6529V31.486H28.1202V25.9526H22.587V20.4191H28.1202V25.9526H33.6529V20.4191H39.186V14.8864H33.6529V9.3539H33.6525Z" fill="#353D51"/>
<path d="M44.7187 9.35416H39.1855V14.8872H44.7187V9.35416Z" fill="#353D51"/>
</svg>
