<svg width="32" height="32" viewBox="0 0 32 32" fill="none" xmlns="http://www.w3.org/2000/svg">
<circle cx="16" cy="16" r="5" fill="white"/>
<path fill-rule="evenodd" clip-rule="evenodd" d="M24 3H21.6471L21.6471 0H24C28.4183 0 32 3.58172 32 8V10.3529H29V8C29 5.23858 26.7614 3 24 3ZM8 0H10.3529V3H8C5.23858 3 3 5.23858 3 8V10.3529H0V8C0 3.58172 3.58172 0 8 0ZM29 21.6471V24C29 26.7614 26.7614 29 24 29H21.6471L21.6471 32H24C28.4183 32 32 28.4183 32 24V21.6471H29ZM10.3529 32H8C3.58172 32 0 28.4183 0 24V21.6471H3V24C3 26.7614 5.23858 29 8 29H10.3529V32Z" fill="white"/>
</svg>
