<svg width="56" height="56" viewBox="0 0 56 56" fill="none" xmlns="http://www.w3.org/2000/svg">
<circle cx="28" cy="28" r="28" fill="#00B4FF"/>
<path d="M23.2374 31.8129C22.554 31.1295 21.446 31.1295 20.7626 31.8129C20.0791 32.4964 20.0791 33.6044 20.7626 34.2878L23.2374 31.8129ZM27 38.0504L25.7626 39.2878C26.416 39.9413 27.4649 39.974 28.1578 39.3626L27 38.0504ZM36.6578 31.8626C37.3826 31.2231 37.4517 30.1173 36.8122 29.3925C36.1728 28.6678 35.0669 28.5987 34.3422 29.2382L36.6578 31.8626ZM20.7626 34.2878L25.7626 39.2878L28.2374 36.8129L23.2374 31.8129L20.7626 34.2878ZM28.1578 39.3626L36.6578 31.8626L34.3422 29.2382L25.8422 36.7382L28.1578 39.3626Z" fill="white"/>
<path d="M15 31.5C14.8333 30 15.2 26.4 18 24C17.1667 21.3333 17 16 21.5 14C29.737 10.3391 32.5 15.5 34 20C36.3333 20.1667 41.4 22.6 41 29" stroke="white" stroke-width="3.5" stroke-linecap="round" stroke-linejoin="round"/>
</svg>
